<svg width="60" height="60" viewBox="0 0 60 60" fill="none" xmlns="http://www.w3.org/2000/svg">
<circle cx="30" cy="30" r="30" fill="#7C01F6"/>
<path d="M34 20.12L25.56 28.96L35.44 43.96L26.96 44.56L21.56 33.16L20.68 34.08L19.6 44.16L15.2 44.56L12.92 18L22.44 17.4L21.16 29.48L30.44 17.4L34 20.12ZM41.3066 43.52C40.5866 42.7733 40.2266 41.8933 40.2266 40.88C40.2266 39.8667 40.5866 39 41.3066 38.28C42.0532 37.5333 42.9332 37.16 43.9466 37.16C44.9599 37.16 45.8266 37.5333 46.5466 38.28C47.2932 39 47.6666 39.8667 47.6666 40.88C47.6666 41.8933 47.2932 42.7733 46.5466 43.52C45.8266 44.24 44.9599 44.6 43.9466 44.6C42.9332 44.6 42.0532 44.24 41.3066 43.52ZM48.0666 16.68L49.1466 18.28L45.6266 34.6L42.0666 34.96L40.8266 17.96L48.0666 16.68Z" fill="white"/>
</svg>

